<?xml version="1.0" encoding="UTF-8" standalone="no"?><!DOCTYPE svg PUBLIC "-//W3C//DTD SVG 1.1//EN" "http://www.w3.org/Graphics/SVG/1.1/DTD/svg11.dtd"><svg width="100%" height="100%" viewBox="0 0 771 130" version="1.1" xmlns="http://www.w3.org/2000/svg" xmlns:xlink="http://www.w3.org/1999/xlink" xml:space="preserve" xmlns:serif="http://www.serif.com/" style="fill-rule:evenodd;clip-rule:evenodd;stroke-linejoin:round;stroke-miterlimit:2;"><rect id="logo-reviewsio--black" x="0" y="0.131" width="770.833" height="125" style="fill:none;"/><g id="logo-reviewsio"><g><g><path d="M209.459,96.05l-19.299,-24.842c12.391,-2.902 21.055,-10.99 21.055,-24.398l-0,-0.229c-0,-6.725 -2.46,-12.707 -6.613,-16.865c-0.001,-0 -0.001,-0 -0.001,-0c-5.308,-5.308 -13.62,-8.485 -23.991,-8.485c0,0 -30.616,0 -30.616,0c-3.008,0 -5.6,2.566 -5.6,5.717l-0,73.037c-0,3.151 2.592,5.717 5.6,5.717c3.139,0 5.712,-2.573 5.712,-5.717l0,-26.654c0,0 21.933,0 21.933,0c0,0 22.71,29.504 22.71,29.504c1.247,1.663 2.931,2.867 5.149,2.867c2.865,0 5.717,-2.591 5.717,-5.604c-0,-1.528 -0.651,-2.802 -1.756,-4.048Zm-9.674,-49.119l0.001,0.234l-0.001,-0c0,9.945 -8.391,15.787 -19.995,15.787l-24.084,0c0,0 0,-31.108 0,-31.108c0,-0 24.2,-0 24.2,-0c12.475,-0 19.879,5.593 19.879,15.087Z" style="fill-rule:nonzero;"/><path d="M227.703,99.403c-0,3.146 2.591,5.712 5.599,5.712c0,0 51.417,0 51.417,0c2.917,0 5.246,-2.334 5.246,-5.25c-0,-2.911 -2.329,-5.246 -5.246,-5.246c0,0 -45.704,0 -45.704,0c-0,0 -0,-26.55 -0,-26.55c0,0 39.862,0 39.862,0c2.917,0 5.25,-2.329 5.25,-5.246c0,-2.77 -2.333,-5.25 -5.25,-5.25l-39.862,0c-0,0 -0,-25.841 -0,-25.841c0,-0 45.121,-0 45.121,-0c2.911,-0 5.25,-2.334 5.25,-5.25c-0,-2.916 -2.339,-5.25 -5.25,-5.25c-0,-0 -50.834,-0 -50.834,-0c-3.007,-0 -5.6,2.566 -5.6,5.716l0.001,72.455Z" style="fill-rule:nonzero;"/><path d="M337.527,106.052l0.613,-0.001c3.061,-0.053 4.968,-1.778 6.179,-4.472l31.687,-73.194c0.282,-0.704 0.425,-1.408 0.425,-2.254c-0,-2.878 -2.434,-5.483 -5.6,-5.483c-2.509,-0 -4.509,1.894 -5.489,3.845c-0.011,0.022 -0.021,0.044 -0.031,0.066l-27.43,65.706c0,-0.001 -27.322,-65.472 -27.322,-65.472c-0.974,-2.371 -2.96,-4.145 -5.749,-4.145c-3.156,-0 -5.721,2.736 -5.721,5.596c0,0.998 0.152,1.708 0.575,2.559l31.528,72.754c1.1,2.739 3.18,4.495 6.335,4.495Zm-5.375,-4.9c-0,0 -0,0 -0,0Z" style="fill-rule:nonzero;"/><path d="M391.399,26.364l-0,73.621c-0,3.15 2.592,5.716 5.6,5.716c3.139,0 5.712,-2.572 5.712,-5.716l0,-73.621c0,-3.144 -2.573,-5.717 -5.712,-5.717c-3.008,0 -5.6,2.566 -5.6,5.717Z" style="fill-rule:nonzero;"/><path d="M479.983,21.233l-0.136,-0.001c0,-0 -50.837,-0 -50.837,-0c-3.003,-0 -5.596,2.565 -5.596,5.716l-0,72.455c-0,3.146 2.592,5.712 5.596,5.712c-0,0 51.42,0 51.42,0c2.912,0 5.246,-2.334 5.246,-5.25c0,-2.911 -2.334,-5.246 -5.246,-5.246c0,0 -45.704,0 -45.704,0c0,0 0,-26.55 0,-26.55c0,0 39.859,0 39.859,0c2.921,0 5.25,-2.329 5.25,-5.246c-0,-2.77 -2.329,-5.25 -5.25,-5.25l-39.859,0c0,0 0,-25.841 0,-25.841c0,-0 45.121,-0 45.121,-0c2.911,-0 5.25,-2.334 5.25,-5.25c0,-2.871 -2.267,-5.177 -5.114,-5.249Z" style="fill-rule:nonzero;"/><path d="M580.201,106.166l0.96,0c2.726,-0.057 4.686,-1.926 5.645,-4.672c-0.003,0.01 26.176,-72.673 26.176,-72.673c0.003,-0.01 0.006,-0.02 0.01,-0.029c0.261,-0.8 0.635,-1.746 0.635,-2.545c-0,-2.865 -2.709,-5.596 -5.717,-5.596c-2.692,-0 -4.576,1.781 -5.429,4.332c0.003,-0.012 -21.655,62.284 -21.655,62.284l-20.423,-62.282c-0.847,-2.545 -2.721,-4.334 -5.543,-4.334l-0,0.009l-0.588,-0.009c-2.967,-0 -4.7,1.789 -5.546,4.334l-20.423,62.279c-0,0 -21.542,-62.063 -21.542,-62.063c-0.835,-2.504 -2.976,-4.55 -5.776,-4.55c-3.137,-0 -5.829,2.718 -5.829,5.712c-0,0.813 0.246,1.626 0.516,2.434l26.184,72.7c0.963,2.877 2.924,4.616 5.645,4.669l0.96,0c2.722,-0.057 4.687,-1.927 5.641,-4.673l20.173,-59.951l20.285,59.952c0.959,2.746 2.924,4.615 5.641,4.672Z" style="fill-rule:nonzero;"/><path d="M672.646,82.805l0,0.233c0,7.55 -6.903,12.867 -17.187,12.867c-10.106,0 -17.609,-3.063 -25.104,-9.413l-0.021,-0.018c-0.741,-0.724 -2.049,-1.323 -3.504,-1.323c-3.022,-0 -5.488,2.434 -5.488,5.6c0,1.875 0.884,3.459 2.174,4.345c9.299,7.379 19.434,11.188 31.593,11.188c16.898,0 28.966,-9.591 28.966,-24.179l0,-0.237c0,-12.961 -8.567,-20.032 -27.461,-24.152c-0.001,0 -0.002,-0 -0.004,-0c-17.165,-3.681 -21.38,-7.517 -21.38,-14.878l-0,-0.233c-0,-6.871 6.447,-12.162 16.37,-12.162c7.377,-0 13.845,2.049 20.541,6.929c0.002,0.001 0.004,0.003 0.006,0.004c0.997,0.716 2.001,1.012 3.295,1.012c3.025,0 5.479,-2.448 5.479,-5.483c0,-2.135 -1.26,-3.711 -2.403,-4.57c-0.006,-0.005 -0.012,-0.009 -0.018,-0.013c-7.654,-5.501 -15.66,-8.259 -26.666,-8.259c-16.195,0 -27.921,9.969 -27.921,23.363l1.042,1.042c-0,-0 -1.042,-1.036 -1.042,-1.036c-0,0 -0,0.218 -0,0.218c-0,-0 1.042,1.047 1.042,1.047l-1.042,-1.042c-0,13.919 8.802,20.394 28.287,24.626c0.002,0.001 0.004,0.001 0.006,0.002c16.349,3.45 20.44,7.291 20.44,14.522Z" style="fill-rule:nonzero;"/></g><path d="M696.954,94.205l-0.099,-0.001c-2.197,-0 -3.763,1.573 -3.763,3.696l0.625,0.625c0,-0 -0.624,-0.625 -0.624,-0.625l-0,1.308c-0,2.119 1.568,3.762 3.762,3.762c2.117,0 3.696,-1.64 3.696,-3.762c-0,0.345 -0.28,0.625 -0.625,0.625c-0,-0 0.625,-0.071 0.625,-0.655l-0,-1.278c-0,-2.093 -1.526,-3.647 -3.597,-3.695Zm-3.182,5.618c-0.034,0.008 -0.054,0.01 -0.054,0.01c0.018,-0 0.037,-0.001 0.056,-0.003l-0.002,-0.007Z" style="fill-rule:nonzero;"/><path d="M710.289,70.45l-0,29.345c-0,1.791 1.386,3.175 3.171,3.175c1.799,0 3.112,-1.38 3.112,-3.175l0,-29.345c0,-1.795 -1.385,-3.175 -3.175,-3.175c-1.711,-0 -3.108,1.463 -3.108,3.175Zm-0.458,-11.962l-0.001,-0.001c0,1.92 1.571,3.304 3.567,3.304c2.073,0 3.629,-1.389 3.629,-3.304l0,-0.846c0,-1.996 -1.556,-3.308 -3.629,-3.308c-1.996,-0 -3.567,1.308 -3.567,3.308l0.001,0.847Z" style="fill-rule:nonzero;"/><path d="M761.41,85.171l0.001,-0.142c0,-9.886 -7.714,-18.146 -18.204,-18.146c-10.557,-0 -18.275,8.395 -18.275,18.275l0.129,0.129l-0.129,-0.125l0,0.125c0,9.882 7.651,18.142 18.142,18.142c10.556,-0 18.331,-8.385 18.336,-18.258Zm-6.411,0.116l-0,-0.129c-0,-6.902 -5.146,-12.583 -11.925,-12.583c-6.962,-0 -11.729,5.679 -11.729,12.454l-0,0.129c-0,6.9 5.084,12.508 11.862,12.508c6.957,0 11.792,-5.604 11.792,-12.379Z"/></g><g><g><path d="M103.275,28.974c9.794,7.91 14.581,18.126 15.471,30.488c-0.744,23.861 -12.002,39.197 -31.341,45.773c-22.343,6.733 -36.501,1.286 -50.201,-12.673l-2.283,14.191c23.825,15.657 58.427,23.439 80.336,1.832c22.501,-22.191 22.786,-60.732 -4.008,-83.61l-7.974,3.999Z" style="fill:none;"/><clipPath id="_clip1"><path d="M103.275,28.974c9.794,7.91 14.581,18.126 15.471,30.488c-0.744,23.861 -12.002,39.197 -31.341,45.773c-22.343,6.733 -36.501,1.286 -50.201,-12.673l-2.283,14.191c23.825,15.657 58.427,23.439 80.336,1.832c22.501,-22.191 22.786,-60.732 -4.008,-83.61l-7.974,3.999Z"/></clipPath><g clip-path="url(#_clip1)"><path d="M99.773,17.571c-19.376,-20.191 -51.498,-20.854 -71.69,-1.479c-20.191,19.375 -20.853,51.498 -1.478,71.689l15.306,15.951c19.375,20.191 51.498,20.854 71.689,1.478c20.191,-19.375 20.854,-51.498 1.478,-71.689l-15.305,-15.95Z" style="fill:#feef7c;"/></g><path d="M30.824,97.349l6.127,-5.352c-13.985,-19.817 -14.571,-48.831 4.568,-64.804c14.187,-11.84 42.337,-17.977 64.858,1.852l3.488,-6.133c-18.414,-20.442 -46.22,-23.017 -64.048,-16.004c-43.748,17.209 -37.007,74.836 -14.993,90.441Z" style="fill:none;"/><clipPath id="_clip2"><path d="M30.824,97.349l6.127,-5.352c-13.985,-19.817 -14.571,-48.831 4.568,-64.804c14.187,-11.84 42.337,-17.977 64.858,1.852l3.488,-6.133c-18.414,-20.442 -46.22,-23.017 -64.048,-16.004c-43.748,17.209 -37.007,74.836 -14.993,90.441Z"/></clipPath><g clip-path="url(#_clip2)"><path d="M102.57,20.368c-19.376,-20.191 -51.498,-20.854 -71.689,-1.479c-20.192,19.376 -20.854,51.498 -1.479,71.69l15.306,15.95c19.375,20.191 51.498,20.854 71.689,1.478c20.191,-19.375 20.854,-51.498 1.479,-71.689l-15.306,-15.95Z" style="fill:#5cd3cb;"/></g></g><path d="M21.485,62.193c0,28.054 22.746,50.8 50.8,50.8c28.059,0 50.805,-22.746 50.805,-50.8c-0,-28.058 -22.746,-50.804 -50.805,-50.804c-28.054,0 -50.8,22.746 -50.8,50.804Zm35.359,9.189c0.534,-1.69 -0.06,-3.532 -1.48,-4.593c-3.76,-2.808 -11.173,-8.345 -16.154,-12.064c-0.719,-0.537 -1.013,-1.474 -0.73,-2.326c0.283,-0.852 1.079,-1.427 1.977,-1.427l19.306,0c1.797,0 3.391,-1.151 3.956,-2.856c1.522,-4.598 4.548,-13.733 6.553,-19.789c0.282,-0.851 1.077,-1.427 1.974,-1.428c0.897,-0.002 1.695,0.571 1.979,1.422c2.028,6.061 5.088,15.212 6.625,19.806c0.569,1.7 2.16,2.845 3.952,2.845c4.567,0 13.365,0 19.355,0c0.896,0 1.691,0.573 1.975,1.423c0.285,0.85 -0.006,1.786 -0.722,2.325c-4.966,3.74 -12.383,9.327 -16.135,12.153c-1.412,1.063 -1.999,2.901 -1.466,4.586c1.451,4.582 4.361,13.771 6.327,19.978c0.274,0.867 -0.046,1.813 -0.791,2.335c-0.745,0.522 -1.742,0.5 -2.464,-0.054c-4.989,-3.829 -12.278,-9.424 -16.095,-12.354c-1.501,-1.151 -3.589,-1.148 -5.086,0.009c-3.78,2.923 -10.97,8.483 -15.917,12.308c-0.72,0.557 -1.719,0.581 -2.466,0.06c-0.747,-0.521 -1.069,-1.467 -0.795,-2.336c1.966,-6.224 4.872,-15.43 6.322,-20.023Z"/></g></g></svg>