<?xml version="1.0" encoding="UTF-8" standalone="no"?><!DOCTYPE svg PUBLIC "-//W3C//DTD SVG 1.1//EN" "http://www.w3.org/Graphics/SVG/1.1/DTD/svg11.dtd"><svg width="100%" height="100%" viewBox="0 0 47 29" version="1.1" xmlns="http://www.w3.org/2000/svg" xmlns:xlink="http://www.w3.org/1999/xlink" xml:space="preserve" xmlns:serif="http://www.serif.com/" style="fill-rule:evenodd;clip-rule:evenodd;stroke-linejoin:round;stroke-miterlimit:2;"><rect id="reviewsio-logo--minimised" x="0" y="0" width="47" height="29" style="fill:none;"/><g><path d="M29.229,21.578l-0.024,-0c-0.528,-0 -0.903,0.377 -0.903,0.887l0.15,0.15c-0,-0 -0.15,-0.15 -0.15,-0.15l-0,0.314c-0,0.508 0.376,0.903 0.903,0.903c0.508,-0 0.887,-0.394 0.887,-0.903c-0,0.082 -0.067,0.15 -0.15,0.15c-0,-0 0.15,-0.017 0.15,-0.158l-0,-0.306c-0,-0.503 -0.366,-0.876 -0.863,-0.887Zm-0.764,1.348c-0.008,0.002 -0.013,0.003 -0.013,0.003c0.004,-0 0.009,-0.001 0.013,-0.001l-0,-0.002Z" style="fill-rule:nonzero;"/><path d="M32.429,15.877l-0,7.043c-0,0.429 0.332,0.762 0.761,0.762c0.432,-0 0.747,-0.332 0.747,-0.762l-0,-7.043c-0,-0.431 -0.333,-0.762 -0.762,-0.762c-0.411,-0 -0.746,0.351 -0.746,0.762Zm-0.11,-2.871l-0,-0c-0,0.46 0.377,0.793 0.856,0.793c0.497,-0 0.871,-0.334 0.871,-0.793l-0,-0.203c-0,-0.48 -0.374,-0.794 -0.871,-0.794c-0.479,-0 -0.856,0.313 -0.856,0.794l0,0.203Z" style="fill-rule:nonzero;"/><path d="M44.698,19.41l0,-0.034c0,-2.373 -1.851,-4.355 -4.369,-4.355c-2.533,-0 -4.386,2.014 -4.386,4.386l0.031,0.031l-0.031,-0.031l0,0.031c0,2.371 1.837,4.354 4.354,4.354c2.534,-0 4.4,-2.013 4.401,-4.382Zm-1.539,0.028l0,-0.031c0,-1.657 -1.235,-3.02 -2.862,-3.02c-1.67,-0 -2.815,1.362 -2.815,2.989l0,0.031c0,1.656 1.221,3.002 2.847,3.002c1.67,-0 2.83,-1.346 2.83,-2.971Z"/></g><g><g><path d="M22.835,5.616l-1.206,0.604c2.351,1.899 3.5,4.351 3.713,7.317c-0.178,5.727 -2.88,9.408 -7.521,10.986c-5.363,1.616 -8.76,0.309 -12.048,-3.042l-0.208,1.288l1.337,1.393c4.65,4.846 12.36,5.005 17.205,0.355c4.846,-4.65 5.005,-12.359 0.355,-17.205l-1.627,-1.696Z" style="fill:#feef7c;"/><path d="M4.904,22.052l0.808,-0.706c-3.357,-4.756 -3.497,-11.72 1.096,-15.553c3.405,-2.842 10.161,-4.315 15.566,0.444l0.404,-0.709l-1.318,-1.373c-4.65,-4.846 -12.359,-5.005 -17.205,-0.355c-4.846,4.65 -5.005,12.36 -0.355,17.205l1.004,1.047Z" style="fill:#5cd3cb;"/></g><path d="M2,14.193c-0,6.733 5.459,12.192 12.192,12.192c6.734,0 12.193,-5.459 12.193,-12.192c-0,-6.734 -5.459,-12.193 -12.193,-12.193c-6.733,0 -12.192,5.459 -12.192,12.193Zm8.486,2.205c0.128,-0.405 -0.014,-0.847 -0.355,-1.102c-0.902,-0.674 -2.682,-2.003 -3.877,-2.895c-0.173,-0.129 -0.243,-0.354 -0.175,-0.559c0.068,-0.204 0.259,-0.342 0.474,-0.342l4.634,-0c0.431,-0 0.814,-0.276 0.949,-0.686c0.365,-1.103 1.091,-3.296 1.573,-4.749c0.067,-0.204 0.258,-0.342 0.474,-0.343c0.215,-0 0.406,0.138 0.475,0.342c0.486,1.454 1.221,3.65 1.59,4.753c0.136,0.408 0.518,0.683 0.948,0.683c1.096,0 3.208,-0 4.645,0c0.215,-0 0.406,0.137 0.474,0.341c0.068,0.204 -0.001,0.429 -0.173,0.558c-1.192,0.898 -2.972,2.239 -3.873,2.917c-0.338,0.255 -0.479,0.696 -0.351,1.101c0.348,1.1 1.046,3.305 1.518,4.794c0.066,0.209 -0.011,0.436 -0.19,0.561c-0.178,0.125 -0.418,0.12 -0.591,-0.013c-1.198,-0.919 -2.947,-2.262 -3.863,-2.965c-0.36,-0.276 -0.861,-0.275 -1.22,0.002c-0.908,0.702 -2.633,2.036 -3.82,2.954c-0.173,0.134 -0.413,0.14 -0.592,0.015c-0.18,-0.126 -0.257,-0.353 -0.191,-0.561c0.472,-1.494 1.169,-3.703 1.517,-4.806Z" style="fill-rule:nonzero;"/></g></svg>